<?xml version="1.0" encoding="utf-8"?>
<!-- Designed by Vexels.com - 2016 All Rights Reserved - https://vexels.com/terms-and-conditions/  -->

<svg version="1.1" id="Layer_1" xmlns="http://www.w3.org/2000/svg" xmlns:xlink="http://www.w3.org/1999/xlink" x="0px" y="0px"
	 width="1200px" height="1200px" viewBox="0 0 1200 1200" enable-background="new 0 0 1200 1200" xml:space="preserve">
<path fill="#575756" d="M984.738,50H215.262c-82.138,0-148.671,70.173-148.671,156.691v786.595
	c0,86.541,66.533,156.714,148.671,156.714h769.477c82.138,0,148.671-70.173,148.671-156.714V206.691
	C1133.409,120.173,1066.877,50,984.738,50z M814.506,209.429c0,0,2.715-30.219,30.152-30.219h148.146
	c0,0,27.351,2.783,27.351,27.481c0,24.609,0,153.604,0,153.604s-5.435,23.294-23.316,23.294c-17.71,0-154.896,0-154.896,0
	s-27.436-1.337-27.436-28.774V209.429z M601.667,390.864c116.325,0,210.644,94.346,210.644,210.604
	c0,116.302-94.319,210.581-210.644,210.581c-116.239,0-210.559-94.279-210.559-210.581
	C391.109,485.21,485.428,390.864,601.667,390.864z M1022.87,988.726c0,0-1.925,31.951-32.082,31.951H207.811
	c0,0-30.596-5.808-30.596-30.591c0-24.698,1.055-476.389,1.055-476.389h103.964c0,0-59.257,203.44,106.33,339.881
	c0,0,88.188,80.406,218.974,78.193c0,0,158.841-6.75,244.835-116.217c0,0,110.364-129.646,69.513-304.33h100.984V988.726z"/>
</svg>
