<?xml version="1.0" encoding="utf-8"?>
<!-- Designed by Vexels.com - 2016 All Rights Reserved - https://vexels.com/terms-and-conditions/  -->

<svg version="1.1" id="Capa_1" xmlns="http://www.w3.org/2000/svg" xmlns:xlink="http://www.w3.org/1999/xlink" x="0px" y="0px"
	 width="1200px" height="1200px" viewBox="174.028 -102.829 1200 1200" enable-background="new 174.028 -102.829 1200 1200"
	 xml:space="preserve">
<g>
	<g>
		<path fill="#252525" d="M624.898,416.25c-12.968,5.897-38.637,29.796-37.173,53.983c1.484,24.196,18.004,28.914,18.004,28.914
			c4.716,0.296,4.716-2.655,4.716-2.655s-8.55-9.73-6.202-33.04c2.367-23.314,20.37-35.996,20.37-35.996s0,85.564,0,108.277
			c0,22.714-3.83,32.451-6.502,39.232c23.605-0.294,25.091-43.364,25.091-43.364s0-85.846,0-101.193
			C643.201,415.058,635.534,416.25,624.898,416.25z"/>
		<path fill="#252525" d="M1316.94,524.751c0,0,0,0-3.47-0.327c-0.472,7.595-6.633,21.187-11.392,21.031
			c-4.74-0.161-7.253-2.215-9.326-13.599c-2.047-11.378-1.568-30.66-1.244-46.78c0.299-16.129-4.914-19.443-12.669-20.389
			c-7.729-0.952-10.27,4.741-12.642,11.063c-2.366,6.329-13.584,38.88-13.584,38.88s-0.798-16.591-0.949-29.875
			c-0.154-13.278-4.74-20.856-14.064-20.856c-9.326,0-11.542,11.528-11.865,12.322c-0.303,0.794-9.887,24.107-9.887,24.107
			s0-13.864,0-25.966c0-12.095-18.302-10.323-18.302-10.323v59.592c0,0-3.535,23.317-13.569,23.317s-10.314-22.427-10.314-22.427
			s0-34.225,0-48.089c0-13.868-13.869-10.034-15.053-10.624c-1.182-0.59-2.07,3.54-2.949,5.897
			c-15.337-14.154-31.875-7.96-40.121,6.489c-8.271,14.458-10.34,38.65-6.506,56.354c-1.462,10.626-10.897,11.208-10.897,11.208
			c-9.451,0-10.032-13.864-10.032-13.864c-2.95-22.123,2.947-44.844,3.532-54.284c0.603-9.44-14.752-8.851-20.657-4.723
			c-5.902,4.13-8.244-0.586-8.244-0.586s-2.973-13.569-14.474-12.688c-11.496,0.886-10.032,16.82-7.364,19.473
			c2.647,2.654,2.953,7.963,0.886,19.174c-2.071,11.209-18.891,34.226-18.891,34.226s0.301-39.239,0.301-56.054
			c0-16.819-18.584-9.739-18.584-9.739s0,0-0.602,6.193c-20.048-22.425-35.407-1.474-35.407-1.474
			c-20.93,25.078-12.681,58.42-12.078,62.257c0.579,3.83-3.255,13.279-12.406,13.279c-9.133,0-8.849-16.822-8.849-16.822
			s0-43.365,0-55.466c0-12.095-17.401-9.44-17.401-9.44v7.375c0,0-12.685-22.416-33.036-7.67
			c-20.372,14.749-18.003,57.235-18.31,58.125c-0.275,0.885-7.661,18.881-15.91,18.881c-8.269,0-7.965-20.061-7.965-20.061V460.5
			c0,0,5.014,0,18.28,0c13.291,0,10.922-12.985,10.922-12.985h-27.44v-26.838c-3.399-3.4-10.619-7.38-15.053-7.38
			c-4.412,0-7.363,4.129-7.363,4.129v28.917c0,0-10.921,0-18.003,0c-7.084,0-5.904,13.567-5.904,13.567h23.907
			c0,0,0,23.009,0,39.239c0,16.227-8.851,26.848-15.354,34.221c3.854-18.872-14.15-32.749-24.487-38.642
			c-10.315-5.903-1.163-12.685,2.368-18.587c3.531-5.906,4.415-13.279-7.387-13.279c-11.8,0-18.866,8.259-20.654,17.404
			c-1.765,9.152,5.016,15.048,4.137,18.587c-0.882,3.543-21.536,33.929-25.674,39.534c-4.112,5.612-5.598-5.605-5.598-5.605V474.07
			c0,0-4.415-6.786-9.734-8.848c-5.316-2.067-16.514-2.654-23.601,10.321c-7.086,12.99-18.001,35.704-18.001,35.704
			s0-25.671,0-37.178c0-11.502-15.916-9.732-15.916-9.732v80.541c0,0-0.604,12.101,9.735,12.101l8.248-0.299
			c3.25-45.132,22.438-67.561,26.856-73.463c4.431-5.899,3.527,0.889,3.527,0.889s0,32.742,0,50.15
			c0,17.405,10.639,30.683,26.275,15.934c15.632-14.755,31.267-47.21,31.267-47.21c2.65,6.491,11.801,7.971,17.983,19.18
			c6.202,11.211-1.161,20.649-9.734,20.944c-8.546,0.3-7.361-7.96-12.685-7.669c-5.296,0.299-12.963,7.969-5.296,15.347
			c7.667,7.372,24.489,5.31,24.489,5.31c28.921,0,38.633-34.223,38.633-34.223c1.486,12.979,3.255,34.223,22.138,34.223
			c18.886,0,24.791-23.013,24.791-23.013s6.477,23.013,26.551,23.013c20.048,0,25.95-17.116,25.95-17.116
			c1.767,9.151,8.85,17.995,19.768,17.995c10.92,0,19.19-14.162,19.19-14.162s4.713,13.577,20.654,13.577
			c15.913,0,24.481-14.16,24.481-14.16l-0.023,7.73c0,0-10.655,12.596-24.183,26.2c-17.31,17.411-25.95,47.496,8.269,47.496
			c34.221,0,33.342-37.179,33.342-37.179s1.763-15.338,0-41.01c22.416-18.286,31.269-51.034,32.451-54.87
			c1.184-3.847,7.082-5.32,7.082-5.32h13.876c0,0-5.903,15.643-6.206,35.708c-0.303,20.058,8.55,36.283,21.839,36.283
			c13.265,0,20.65-13.862,20.65-13.862s3.533,12.688,22.7,12.688c19.186,0,26.402-20.28,26.402-20.28s5.362,20.551,18.648,20.551
			c13.265,0,19.275-14.854,19.275-14.854s0.475,12.794,0,12.794c-0.472,0,21.015,0,21.015,0s0-4.105,0-23.383
			c0-19.286,7.905-34.778,11.869-42.044c3.94-7.279,5.685-0.64,5.685-0.64s0,0.64,0.474,27.819
			c0.473,27.187,7.583,33.197,13.915,33.197c6.309,0,5.685-5.377,7.426-15.334c2.198-23.876,16.112-48.373,16.112-48.373
			s0,28.769,0,34.936c0,6.162-0.624,36.193,21.017,36.193C1318.205,556.673,1316.94,524.751,1316.94,524.751z M916.68,511.546
			c-1.768,21.823-10.273,32.451-17.102,32.451c-6.846,0-14.039-15.44-12.982-33.933c1.049-18.502,8.33-32.748,15.184-32.748
			C911.664,477.317,918.574,488.216,916.68,511.546z M1003.422,511.546c-1.765,21.823-10.271,32.451-17.118,32.451
			c-6.826,0-14.021-15.44-12.965-33.933c1.053-18.502,8.334-32.748,15.183-32.748
			C998.406,477.317,1005.318,488.216,1003.422,511.546z M991.429,611.82c-21.362,2.421-12.429-16.153-6.524-24.205
			c6.911-9.412,22.479-22.868,22.479-22.868S1010.079,609.711,991.429,611.82z M1155.963,511.546
			c-1.767,21.823-10.274,32.451-17.126,32.451c-6.826,0-14.019-15.44-12.963-33.933c1.032-18.502,8.334-32.748,15.16-32.748
			C1150.94,477.317,1157.852,488.216,1155.963,511.546z"/>
	</g>
	<g>
		<g>
			<path fill="#252525" d="M442.559,419.939c-7.547,0-13.664,6.119-13.664,13.664c0,7.548,6.118,13.666,13.664,13.666
				c7.545,0,13.663-6.118,13.663-13.666C456.222,426.057,450.104,419.939,442.559,419.939z M431.503,383.081h-95.325
				c-35.097,0-63.553,28.629-63.553,63.944v91.921c0,35.316,28.455,63.946,63.553,63.946h95.325
				c35.098,0,63.551-28.631,63.551-63.946v-91.92C495.054,411.711,466.601,383.081,431.503,383.081z M474.269,530.661
				c0,34.271-15.465,52.755-51.777,52.755h-77.666c-35.931,0-51.778-17.76-51.778-52.755v-75.833
				c0-38.12,15.605-52.752,51.778-52.752h77.666c33.909,0,51.777,16.076,51.777,52.752V530.661z M383.23,435.96
				c-31.374,0-56.805,25.433-56.805,56.803s25.432,56.802,56.805,56.802c31.37,0,56.8-25.432,56.8-56.802
				S414.6,435.96,383.23,435.96z M383.23,529.72c-20.413,0-36.959-16.545-36.959-36.957c0-20.411,16.546-36.956,36.959-36.956
				c20.406,0,36.951,16.545,36.951,36.956C420.181,513.175,403.636,529.72,383.23,529.72z"/>
		</g>
	</g>
</g>
</svg>
